<svg version="1.1" id="icon" xmlns="http://www.w3.org/2000/svg" x="0" y="0" viewBox="0 0 40 37.8" style="enable-background:new 0 0 40 37.8" xml:space="preserve">
    <style>
        .st0{fill:url(#work-icon_00000104673080356453770100000008506616626202108041_)}
    </style>
    <linearGradient id="work-icon_00000016042183475989188240000014125816245010990771_" gradientUnits="userSpaceOnUse" x1="9.671" y1="35.917" x2="30.071" y2=".583">
        <stop offset="0" style="stop-color:#ffdb6e"/>
        <stop offset=".054" style="stop-color:#ffd66c"/>
        <stop offset=".292" style="stop-color:#ffc864"/>
        <stop offset=".574" style="stop-color:#ffbf5f"/>
        <stop offset="1" style="stop-color:#ffbc5e"/>
    </linearGradient>
    <path id="work-icon" style="fill:url(#work-icon_00000016042183475989188240000014125816245010990771_)" d="M18.4.1c.7-.2 1.4-.1 2.1-.1.9.1 1.7.2 2.6 0h.2c.9.2 1.7.4 2.5.6.4.1.7.3 1 .5 1 .5 2 .8 3 1.3.7.3 1.4.8 2 1.3.2.2.2.3.3.4 0 .1 0 .1.1.1.2 0 .3.1.4.3.2 0 .3.2.4.3.1.2.3.3.5.5.1.1.2.2.4.1.1-.1.2 0 .2.1.2.3.4.6.5.9.2.3.3.6.5.9.1.1.1.4.2.6 0 .1-.2.2-.3.1-.6-.3-1-.8-1.5-1.2-.1-.1-.1-.1-.1-.2 0-.2-.2-.2-.3-.1-.1.1-.2 0-.2 0-.5-.4-.9-.8-1.3-1.3-.1-.2-.1-.5-.2-.5-.2 0-.3-.2-.5-.3-.2-.1-.5-.3-.7-.4-.1 0-.1-.1-.1-.2 0-.4-.2-.5-.6-.5-.2 0-.4 0-.6-.2-.2-.2-.5-.3-.8-.4-.8-.3-1.6-.5-2.3-.8-.1 0-.2 0-.4-.1-.1 0-.2 0-.2.1 0 .2 0 .2-.2.1-.6-.1-1.2-.2-1.8-.2 0 0-.1 0-.1-.1-.1-.2-.7-.6-1.1-.5h-.3c-.2-.2-.4-.2-.6-.2-1.2.1-2.3.2-3.5.5-.1 0-.2 0-.3-.1-.1-.1-.2-.1-.3.1 0 .1-.1.1-.1.2s-.1.1-.1.2c.1.1.2.1.2 0 .2-.1.4-.1.5-.1.2-.1.3 0 .5.1 0 .1.1.1.2.2 0 0 .1.1.1.2s-.1 0-.2 0h-1c-.1 0-.1.1-.2 0-.3 0-.3 0-.3.3 0 .2 0 .2-.2.3-.3.1-.6.2-.9.4-.1.1-.3.1-.4.1-.3 0-.5.1-.6.4-.1.1-.1.1-.2 0-.2-.2-.2-.4 0-.6l.2-.2c-.5 0-1 .2-1.5.3 0-.1 0-.1.1-.2s.1-.1-.2-.2c-.4-.1-.8.1-1.2.3l-.6.3c-.6.3-1.2.6-1.7 1-.1.1-.3.2-.4.2-.2.1-.4.2-.4.5 0 .1-.2.1-.2.2-.4.3-.9.5-1.2.9s-.8.7-1.1 1c-.2.2-.4.1-.6.1-.1 0-.1-.2-.1-.2 0-.2.1-.4.2-.7.2-.3.4-.6.4-1 0 0 0-.1.1-.1.4 0 .7-.3.9-.6.2-.2.4-.4.5-.7.1-.1.2-.1.3 0 .2.1.4 0 .5-.2.1-.1.2-.2.2-.3.4-.4.9-.8 1.4-1.2.1-.1.2-.2.2.1 0 .2.1.2.2.1.8-.7 1.8-1.1 2.9-1.5.2-.1.3-.1.5-.1.3 0 .5-.1.7-.3.1-.1.1-.1.3 0 .1.1.2.1.4.1.3-.1.6-.1.9-.2.1 0 .2.1.2.1.1.1.2.3.5.3.1 0 .1 0 .2-.1.1-.4.1-.4.6-.4.2 0 .3 0 .5.1.2 0 .3 0 .4-.2 0-.1.2-.1 0-.3zm5.8 36.4c.5.3 1 .1 1.5-.1s.5-.2.8.3c-.3.1-.6.1-.8.2-.1 0-.2 0-.2.2 0 .1-.1.1-.2.1-.4.1-.8.2-1.1.4.2 0 .3 0 .5-.1.3-.1.7-.1 1-.2h.2v.2c-.1.1-.3.2-.4.2-.3 0-.6.2-.9.1-.2 0-.5.1-.7-.1-.1-.1-.1-.1 0-.2-.2.1-.4-.1-.6 0-.1 0-.1 0 0-.2-.3-.1-.6.1-.8.5-.2-.1-.2-.3-.3-.4-.1-.3-.3-.5-.7-.4h-.2c-.2-.2-.5-.2-.6 0-.4.2-.7 0-1 0-.8 0-1.5-.1-2.3-.3-.2-.1-.5 0-.7.1 0 0-.1.1-.2 0-.1 0 0-.1 0-.2 0-.2 0-.4-.2-.5.5-.2 1-.4 1.6-.5.1 0 .2 0 .2-.1.1-.2.2-.1.3-.1.5.3 1.2.3 1.8.3.5 0 .9-.1 1.3-.1.3 0 .6-.2.9-.3 1-.2 2.1-.4 3.1-.7.4-.1.8-.2 1.1-.6.1-.1.1-.1.1-.2 0-.4.3-.6.6-.6.5-.1 1-.1 1.4-.2.5-.1.9-.3 1.2-.7.3-.4.8-.7 1.1-1.2.1-.1.3-.2.5-.1h.1c.4-.5 1-.9 1.5-1.4.2-.2.3-.4.4-.5.2-.3.4-.5.5-.9 0-.1.2 0 .2 0 .1 0 .1.1.1.2 0 .3-.1.6-.3.8-.2.2-.3.5-.5.7 0 .1-.1.2.1.1.1 0 .1.1.1.2 0 .2-.2.4-.2.7 0 .1-.1.1-.1.1-1 .5-1.7 1.2-2.3 2-.1.2-.3.4-.5.5-.4.2-.8.4-1.1.6-.5.3-1.1.4-1.7.7-.4.2-.9.4-1.3.7-.4.2-.8.4-1.2.4h-.1c-.2.1-.6.4-1 .6zM4 31.1c.2 0 .3.1.5.2.4.4.8.6 1.3.9.1.1.1 0 .2-.1 0-.1 0-.1-.1-.2-.2-.1-.4-.3-.7-.5-1-.9-1.8-2.1-2.2-3.4 0-.1 0-.2.1-.3.2-.1.2-.4.1-.6 0-.1.2-.4.3-.4.1 0 .1.1.1.1.1.2.3.4.5.6.1.1.1.2 0 .3l-.1.1v.3c.1.1.2 0 .2 0 .2-.1.3.1.3.2.3.5.6 1 1.1 1.5l.1.1v.2c.3-.1.1.3.4.3.1 0 .1 0 .2.1.3.6.9 1 1.4 1.4.4.3.9.6 1.3.9.2.1.5.2.8.2.1 0 .1 0 .1-.1.1-.3.2-.4.5-.3.7.2 1.3.4 1.9.9.1.1.3.2.3.4-.3 0-.6.1-.9 0-.2-.1-.2.1-.2.2-.1.1.1.1.1.1.8.3 1.5.7 2.3.9.5.2 1 .4 1.6.3.1 0 .2 0 .2.1 0 .3 0 .6-.1.9 0 .2-.2.2-.4.2-.6-.2-1.1-.4-1.7-.6-.2-.1-.4-.2-.7-.2.1 0 .1-.1.1-.1.1-.1.1-.2-.1-.3-.1 0-.3-.1-.4-.2-.1 0-.2-.1-.3 0-.1.1 0 .2.1.3l.1.1c-.4-.1-.7-.3-1-.4-.8-.4-1.6-.9-2.5-1.3-.3-.1-.6-.1-.9-.2-.1 0-.1.2-.2.3s0 .3-.2.3-.3 0-.5-.1c.1-.1.2.1.2-.1s-.1-.3-.2-.3-.3-.1-.3 0-.1.1-.1.2c-.1.2-.2.1-.3 0-.3-.2-.6-.6-.8-.9-.1-.1-.1-.2.1-.3.1 0 .1-.1 0-.2s-.2-.2-.3-.2c-.1 0-.1.1-.1.2 0 .2-.2.1-.2.1-.2-.2-.3 0-.4.2-.2-.7-.4-1.2-.6-1.8zm33.5-10.3c-.2-.1-.5-.1-.7 0-.1 0-.1 0-.1-.1-.2-1-.4-2-.2-3 .1-.1 0-.3.2-.2.1 0 .2.2.2.3 0 .2.1.4 0 .6v.4c0 .3.1.4.4.3.2 0 .3 0 .2.2v.1c0 .1 0 .2.1.2s.1-.1.1-.2c0-.3.1-.6.1-.9 0-.2.1-.4.3-.5l.1-.1c.1-.1.1-.2 0-.3-.1-.1-.1.1-.2.1-.3-1-.5-1.9-.5-2.9v-.3c.1-.3 0-.6-.2-.9-.2-.4-.4-.7-.6-1.1 0-.1-.1-.1 0-.2.2-.7 0-1.4-.4-2-.1-.1-.1-.2-.1-.3.1-.3-.1-.6-.3-.9-.2-.3-.2-.4.2-.5.2-.1.4 0 .6 0 .1 0 .1.1.1.1.3 1 .8 1.9 1.2 2.9l.6 1.8c0 .1.1.3-.1.4-.1.1-.2.2-.2.4 0 .1 0 .2.1.2.1.1.1 0 .2 0 .1-.1.2 0 .2.1s.1.2.2.2c.1.1.1.1 0 .2-.1.3 0 .6 0 1 .1.3.2.5.2.8v.1c.1.2-.3.4-.1.7.2.2.1.5.1.8 0 .1 0 .2-.1.2-.2.1-.4.2-.5.4-.1.2 0 .3.2.3s.2.1.2.2c0 .5-.1 1-.3 1.4-.2.5-.5 1.1-.6 1.6v.6c0 .1.1.2 0 .2h-.3c-.1-.1-.2-.3-.4-.3-.1 0-.1-.1 0-.2.1-.2.1-.3.2-.5.1-.3.1-.4-.2-.5-.1-.1-.1-.2 0-.2-.1-.2.1-.4.1-.7zm-23-2.5c0 .1 0 .2.1.2s.1.1.1.2-.1.2.1.3c.1.1-.1.1-.1.2.2 0 .2.1.2.2.1.6.2 1.3.4 1.9 0 .1 0 .1-.1.2-.2 0-.5.1-.7.2-.1.1-.3 0-.3-.2l-.9-2.1c-.1-.3-.3-.6-.4-.9-.2-.5-.4-1.1-.7-1.6-.1-.2 0-.2.2-.3h.2c.4-.1.4-.1.6.2.3.7.6 1.4.9 2v.1c-.1-.1-.2-.2-.4 0-.1.1-.1.3 0 .3.1.1.3.4.4-.1.2.1.1.2.2.4-.1-.4-.2-.8-.2-1.2-.1-.7-.2-1.4-.3-2 .1-.2.4-.1.6-.2.1 0 .1 0 .2.1.1.3.3.6.4.9.2.5.5 1 .7 1.6l.3.6c-.1-.6-.3-1.2-.3-1.9 0-.3-.1-.6-.1-.9 0-.1 0-.3-.1-.4-.1-.2-.1-.3.2-.4.6-.2.6-.2.7.4.1.6.2 1.2.2 1.8.1.7.2 1.5.4 2.2 0 .2.1.4.1.6 0 .1 0 .2-.1.2-.3 0-.5.1-.8.2-.1.1-.2 0-.2-.1l-.9-2.1c0-.1-.1-.1 0-.2.1 0-.1-.1-.1-.2s.2 0 .2-.2c0-.1-.1-.2-.3-.1-.3.3-.2 0-.4.1zM21 17c.1.3.3.6.4.9.1.5.2 1 .4 1.5 0 .1 0 .1-.1.2-.2 0-.3.1-.5.1-.1.1-.2 0-.3-.2-.3-1.2-.6-2.3-1-3.5-.1-.4-.3-.8-.4-1.2 0-.1 0-.2.1-.2.5-.2 1-.3 1.6-.4.3-.1.6.1.8.5.2.4.3.7.4 1.1.1.3-.1.5-.3.7.2.1.5.1.6.4.1.2.1.3.2.5.1.4.2.7.3 1.1 0 .2.1.4.2.5.1.1 0 .2-.1.2-.2 0-.5 0-.7.1 0 0-.1 0-.1-.1-.1-.4-.2-.9-.3-1.3-.1-.2-.1-.3-.1-.5-.1-.3-.3-.5-.7-.4-.2.3-.2.1-.4 0zm12.4 4.8c.7 0 .6.5.8.9.2.5.2 1 .5 1.5.1.1 0 .2-.1.2-.2 0-.5 0-.7.1 0 0-.1 0-.1-.1-.1-.5-.2-.9-.4-1.4 0-.1-.1-.2-.1-.3-.1-.4-.3-.5-.7-.4-.2.1-.2-.1-.3-.2.2.4.3.9.5 1.3.1.4.2.8.3 1.1 0 .1 0 .2-.1.2-.2 0-.3.1-.5.1-.2.1-.2 0-.3-.2-.3-1.2-.6-2.4-1-3.5-.1-.4-.3-.8-.4-1.2 0-.1 0-.2.1-.2.5-.2 1.1-.3 1.6-.5.3-.1.7.2.8.5.1.3.2.7.3 1 .1.6.1.8-.2 1.1zM26 23.6c.1 0 .2-.1.4-.1.3 0 .4-.1.3-.4-.1-.5-.3-1-.5-1.5-.1-.3-.1-.4.2-.5.6-.1.6-.1.7.4.3.9.5 1.7.8 2.6.2.6.4 1.2.6 1.7.1.2 0 .3-.2.3s-.3.1-.5.1-.2 0-.3-.2c-.1-.6-.4-1.3-.5-1.9 0-.1-.1-.2-.2-.1-.1 0-.3.1-.4.1-.1 0-.2.1-.1.3l.6 1.8c.1.2 0 .3-.2.3h-.2c-.5.2-.6.1-.7-.4-.1-.6-.3-1.2-.5-1.8-.1-.2-.1-.4-.2-.5-.2-.6-.4-1.3-.6-2-.1-.2 0-.3.2-.4h.1c.5-.2.5-.1.6.3.2.7.4 1.3.6 1.9zm-2.5-8.2c.1.1.1.1.2.1s.2-.1.3.1c.1.1.1 0 .1-.1 0-.5.1-.9.1-1.4 0-.1.1-.3.1-.4 0-.1.1-.2.2-.3.2-.1.4-.1.6-.2.1 0 .2 0 .2.1-.1.7-.3 1.4-.4 2.2v.2c.5.6 1 1.3 1.5 1.9.1.2.3.3.4.5.1.1.1.2-.1.2s-.4.1-.6.2c-.1 0-.2 0-.2-.1-.4-.5-.8-1.1-1.1-1.6 0-.1-.1-.1-.1-.1-.1 0 0 .1 0 .2 0 .2-.1.4 0 .6.2.4.2.8.4 1.1.1.1 0 .2-.1.2-.2 0-.3.1-.5.1s-.2 0-.2-.1c-.1-.5-.3-1.1-.5-1.7-.2-.8-.5-1.6-.7-2.4-.1-.2-.1-.5-.2-.7 0-.1 0-.2.1-.2.2-.1.4-.1.6-.2.1 0 .1 0 .1.1.1.4.2.9.4 1.3.1.2 0 .3-.2.3-.3.1-.3.1-.4.1zm-6.6.9c0-.6.3-.9.8-1 .3-.1.5-.1.8-.1.5.1.7.5.9.9.2.7.4 1.4.6 2 .1.3.2.6.2.9.1.5 0 .9-.4 1.2-.4.3-1.2.4-1.6.1-.3-.2-.4-.5-.5-.8-.3-.9-.5-1.8-.8-2.7v-.5zm2.5 3.1v-.2c-.1-.5-.2-.9-.4-1.3-.2-.6-.3-1.2-.6-1.8-.1-.2-.3-.3-.4-.2-.2.1-.4.3-.3.5.2.6.3 1.2.5 1.8.1.4.3.9.4 1.3.1.2.2.3.4.3.2-.1.4-.2.4-.4zm-5.7 5.4c.5 0 .9.2 1 .7l.9 3c.1.5 0 1-.4 1.3-.4.3-1.2.4-1.6.1-.3-.2-.4-.5-.5-.8l-.6-2.1c-.1-.3-.2-.7-.2-1 0-.5.2-.9.7-1 .2-.1.4-.2.7-.2zm1.1 4.2c-.3-1.1-.6-2.2-.9-3.2-.1-.2-.3-.4-.4-.3-.3.1-.4.3-.3.6 0 .1.1.2.1.3.2.9.5 1.9.8 2.8.1.2.2.3.4.3.1-.1.3-.3.3-.5zm-1.6-2.1c0-.1 0-.3-.2-.3-.2-.1-.1.1-.2.2v.1h.1c.1-.2.2-.2.3 0zm4.9 1.7c-.1.4-.3.5-.6.5-.4.1-.7 0-.9-.4-.2-.4-.3-.8-.5-1.3-.2-.6-.4-1.2-.5-1.8-.1-.3-.1-.6.1-1 .1-.2.3-.4.5-.5.5-.2 1-.2 1.5.2.1.1.2.3.3.5 0 .1.1.2.1.4s-.1.3-.2.3h-.3c-.1.1-.2 0-.2-.1-.1-.1-.1-.3-.2-.5-.1-.3-.5-.4-.7-.1 0 .1-.1.1 0 .2.1.3.1.6.2.9l.3 1.2c.1.3.2.6.4.9.1.2.2.3.4.2.2 0 .3-.1.3-.4 0-.3-.2-.6-.2-1 0-.1-.1-.1-.2 0-.3.1-.3.1-.4-.2-.1-.2 0-.4.3-.5.2-.1.5-.1.7-.2.1 0 .1 0 .2.1.2.6.4 1.3.6 2v.1c.2.4.2.5-.3.6h-.1c-.5.2-.6.2-.6-.1zM1.2 17.5H.8c-.2 0-.3-.1-.4-.3 0-.1-.1-.2-.1-.4s-.1-.4.1-.6c.2-.1.2-.4.1-.6 0-.1 0-.2.1-.3.2-.1.3-.4.4-.6.2-.7.3-1.5.5-2.2.3-.6.5-1.1.5-1.7 0-.1.1-.2.1-.4.1-.2.2-.3.5-.2.2.1.3.1.5 0 .1-.1.5.1.6.2.1.1 0 .1 0 .2-.3.6-.6 1.3-.9 2-.1.2-.1.4 0 .7.1.1 0 .3-.1.5s-.2.4-.4.6c-.1.2-.2.4-.2.6-.1.2 0 .4-.1.5-.2.4-.2.8-.4 1.2 0 .2-.1.4 0 .5-.1.3-.1.3-.4.3zM15 7.8c.1 0 .2 0 .2.1 0 .2.1.3.1.5 0 .1-.1.2-.2.2-.4 0-.7.2-1.1.2 0 0-.1.1 0 .2.1.3.2.7.3 1 0 .1 0 .1.1.1.3-.1.7-.2 1-.3.1 0 .1 0 .2.1.1.2.1.4.2.6 0 .1 0 .1-.1.1-.3.1-.6.1-.9.2-.2 0-.2.1-.1.2.1.4.2.8.3 1.1 0 .1.1.2.2.1.4-.1.8-.2 1.1-.3.1 0 .1 0 .2.1.2.4 0 .7-.4.8-.5.1-1 .3-1.5.4-.1 0-.2 0-.2-.1l-.6-2.4c-.2-.7-.4-1.5-.6-2.1 0-.1 0-.2.1-.2.4-.2 1-.4 1.7-.6zm15.1 12.6c.1 0 .1 0 .2.1 0 .2.1.4.1.5 0 .1-.1.1-.1.1-.4.1-.7.2-1.1.2-.1 0-.1.1-.1.1.1.4.2.7.3 1.1 0 .1 0 .1.1.1.3-.1.7-.1 1-.3.1-.1.2 0 .2.1.1.2 0 .4.1.5 0 .1 0 .1-.1.1-.3.1-.6.1-1 .2-.2 0-.2.1-.1.2.1.4.2.7.3 1.1 0 .1.1.2.2.1.4-.1.7-.2 1.1-.3.1 0 .1 0 .2.1.2.4 0 .7-.4.8-.5.1-1 .3-1.5.4-.1 0-.2 0-.2-.1l-.6-2.4c-.2-.7-.4-1.5-.6-2.1 0-.1 0-.2.1-.2.5-.1 1.2-.2 1.9-.4-.1 0-.1 0 0 0zM20.4 23c.1 0 .2 0 .2.1 0 .2.1.3.1.5 0 .1 0 .2-.1.2-.4 0-.7.2-1.1.2-.1 0-.1.1-.1.1.1.4.2.7.3 1.1 0 .1 0 .1.1.1.3-.1.7-.1 1-.3.1 0 .1 0 .2.1.1.2 0 .4.1.6 0 .1 0 .1-.1.1-.3.1-.6.1-1 .2-.1 0-.2.1-.1.2.1.4.2.8.4 1.1 0 .1.1.1.2.1.4-.1.7-.2 1.1-.3.1 0 .1 0 .2.1 0 .1.1.2.1.4.1.3.1.3-.2.4-.6.1-1.1.2-1.7.4-.3.1-.3.1-.4-.2-.2-.8-.4-1.5-.6-2.3-.2-.7-.4-1.5-.6-2.1 0-.1 0-.2.1-.2.5-.2 1.2-.4 1.9-.6 0 .1 0 .1 0 0zm3.4-13.1c.4-.4.1-.8-.2-1.1-.3-.3-.7-.4-1-.6-.8-.4-1.1-1.3-.9-2.1 0-.1.2-.2.3-.3.4-.2 1-.3 1.5 0 .1.1.2.2.3.4.1.2.1.4.2.7 0 0 0 .1-.2.1-.1 0-.3 0-.4.1-.2 0-.2 0-.2-.2 0-.1 0-.2-.1-.3.3.1.3-.3.5-.2v-.1c-.1.1-.1 0-.2-.1-.4-.1-.2.2-.4.3-.1-.1-.3-.3-.5-.2-.2.1-.3.2-.2.5.1.4.4.6.8.8.4.2.9.4 1.2.8.3.4.5.9.4 1.5 0 .4-.5.7-1 .8-.3.1-.6.1-.9-.1-.4-.2-.5-.5-.6-.9-.1-.5-.1-.5.4-.6.1 0 .2 0 .2.1s.1.3.1.4c.2.3.5.4.9.3 0 0 0 .1-.1.2.2.1.3.1.5.1.1 0 .1-.1.2-.2v-.1c-.1-.1-.1 0-.2 0h-.1v-.1s.1-.1 0-.1-.1.1-.1.1c-.1 0 0 .2-.1.2s-.1 0-.1-.1zm.2-1.5c-.1 0-.3.2-.4-.1 0 .1-.2.2 0 .3 0 .1-.2.1-.1.2.3.2.3.2.4-.2.1-.1.1-.2.1-.2zm.1 1.2c.1.1.2.3.4 0 0-.1-.2 0-.1-.1s0-.1 0-.1-.1-.1-.1 0c-.1.1-.2.1-.2.2zm-1.3-1.9c0 .1 0 .1-.1.2-.2 0-.1.1 0 .2 0-.1 0-.2.1-.2.2 0 0-.1 0-.2zm.3 2.8c.2 0 .3 0 .5-.1-.2-.1-.3.1-.5.1zm-1.9 12.3c0-.2.1-.2.1-.2.7-.2 1.4-.4 2.2-.6.1 0 .1 0 .2-.1.3-.1.3-.1.4.2 0 .2.2.4.1.5 0 .1-.3 0-.5.1-.3.1-.4.3-.3.6.2.6.4 1.3.5 1.9.2.6.3 1.2.5 1.8 0 .2 0 .2-.2.3-.1 0-.3 0-.4.1-.2.1-.3 0-.3-.2-.1-.7-.3-1.3-.5-1.9-.1-.6-.3-1.1-.5-1.7-.1-.5-.1-.5-.6-.4-.4.2-.6 0-.7-.4-.1-.4 0 0 0 0zm2.2 1.8c-.1.1-.4-.1-.4.2 0 .1.1.1.1.1.1-.1.4 0 .4-.2 0-.1 0-.1-.1-.1zm.2.7c0-.1-.2 0-.1-.1 0-.1 0-.1-.1 0s-.2 0-.2.2c.1 0 .3 0 .4-.1 0 0 .1 0 0 0zm-.8-1.1c0-.1.2-.2 0-.4-.1-.1-.1 0-.1 0-.1.2 0 .3.1.4zM10.6 8.9c.1 0 .2.1.2.2.3 1.2.7 2.5 1 3.7 0 .1 0 .1.1.2.1.3.1.3.4.2s.7-.2 1-.3c.1 0 .1 0 .1.1s0 .3.2.4c.1 0 0 .3-.1.3-.7.2-1.3.4-2 .5-.1 0-.2 0-.2-.1-.3-1.3-.7-2.5-1.1-3.8-.2-.4-.2-.7-.4-1.1 0-.1 0-.1.1-.2.2 0 .4-.1.7-.1zm5.2-1.3c0-.1.1-.1.2-.2l2.1-.6h.1c.4-.1.4-.1.5.3 0 .1.2.3.1.4 0 .1-.2.1-.4.1-.1 0-.2.1-.3.1-.3.1-.3.1-.2.4l.6 2.1c.1.4.2.9.4 1.3.1.2.1.4.1.6 0 .1 0 .2-.1.2-.2 0-.4.1-.6.1-.1 0-.1 0-.2-.1-.2-1.2-.6-2.4-.9-3.6 0-.2-.1-.3-.1-.5s-.1-.2-.3-.1c-.2.1-.4.1-.6.2-.1 0-.2 0-.2-.1-.1-.3-.1-.5-.2-.6zm1.8 1.6c-.2.1.1.2 0 .3 0 0-.1.1 0 .2.1 0 .1.1.2 0 0-.1.1-.1.2-.2 0 0 .1.1.1-.1 0-.1-.1 0-.1-.1-.1.1-.4.2-.4-.1zm.7.9c0-.1-.2-.1-.1-.2-.1 0-.3 0-.2.2 0 .2.1 0 .3 0zm-.9-1.2c.1 0 .1-.1.1-.2s-.1-.2-.1-.2c-.1 0-.1.1-.1.1 0 .2 0 .3.1.3zm.1-.8c0-.1 0-.1 0 0-.1-.1-.2-.1-.3 0v.1c.1-.1.2-.1.3-.1zm-5.7 18.1c-.3 0-.6.1-.9.1-.1 0-.2.1-.1.2.1.4.2.8.4 1.2.1.5.3 1.1.4 1.6.1.4.3.8.3 1.2 0 .2 0 .2-.2.3-.2 0-.3.1-.5.1s-.2 0-.2-.2c-.1-.7-.4-1.4-.5-2.1-.1-.5-.3-1.1-.4-1.6-.1-.5-.1-.5-.6-.4h-.1c-.1 0-.4.2-.4.1-.1-.1-.1-.4-.2-.6 0-.1.1-.1.2-.2l2.1-.6h.2c.3-.1.3-.1.4.2-.1.3 0 .5.1.7zm-1.2 1.7c-.2.1.1.2 0 .3-.1.1 0 .1.1.2.1 0 .1.1.2 0l.1-.1c.1 0 .2 0 .2-.2 0-.1-.2 0-.2 0-.3 0-.4 0-.4-.2zm.4.9c.1 0 .2 0 .2-.1 0 0-.1-.1-.1-.2-.1.1-.2 0-.2.2-.1.1 0 .1.1.1zm-.7-1.4c0 .2 0 .3.1.3s.1-.1.1-.2-.1-.2-.1-.2c-.1 0-.1 0-.1.1zm.3-.9c-.2 0-.3.2-.4.2v.1h.1c.2 0 .2-.2.3-.3zm26.3-2.1c-.3 0-.2-.1-.2-.3.1-.2.2-.4.3-.5.5.8.4 1.6 0 2.4-.1.3-.3.6-.3 1 0 .1-.1.1-.1.2-.2.4-.5.9-.7 1.3-.1.2-.1.3-.1.5 0 .1 0 .1-.1.1-.3 0-.4-.2-.5-.5-.1-.3-.1-.5.1-.7.1-.1.1-.1 0-.2-.1 0-.1-.1-.2-.1-.2-.3-.2-.3 0-.5.5-.5.9-1.1 1.2-1.8.2-.5.3-.6.6-.9zM1 23.6c0-.3.1-.6-.1-.9-.2-.3-.2-.6-.2-.9 0-.1 0-.1-.1-.2-.1-.2 0-.2.2-.2.1 0 .3-.1.4-.1-.1-.3-.2-.4-.4-.6-.1-.1-.2-.3-.3-.5 0-.1 0-.2.1-.3.1-.1.2-.1.3 0 .1.2.3.5.6.4.2 0 .4.3.4.6s-.1.5-.1.8c-.1.3-.2.6.1.9v.1c-.2.5 0 .9.2 1.3l.9 1.5c0 .1.1.2.1.3 0 0 .1.1 0 .1h-.2c-.2 0-.3-.2-.5-.3-.2-.1-.3-.3-.5-.4-.2-.1-.3-.3-.3-.5 0-.3-.1-.6-.1-.9 0-.1 0-.1.1-.2s.1-.1 0-.2c-.1 0-.2-.1-.2-.1-.1-.1-.2 0-.2.1-.1.1-.1.2-.2.2zM35.8 6.4c-.2-.2-.3-.4-.5-.6-.1-.1-.1-.2-.1-.2 0-.3-.2-.3-.3-.4-.2-.2-.5-.3-.8-.4 0 0-.1 0-.1-.1-.2-.3-.5-.4-.8-.6-.2-.1-.4-.2-.6-.4-.1-.1-.1-.2-.1-.3 0-.1.1-.2 0-.3-.2-.1-.3-.3-.6-.3-.1 0-.2-.1-.3-.2-.2-.2-.5-.3-.8-.4-.3-.1-.5-.2-.8-.3-.2-.1-.3-.2 0-.4.1-.1 0-.2 0-.4 0 .1 0 0-.1-.1.1 0 .1 0 .2.1.2.1.3.2.5.1s.5 0 .7.1c.3.2.5.4.7.7.4.4.7 1 1.3 1.3.5.3 1 .7 1.3 1.2.3.4.5.7.8 1 .1.2.3.3.4.5 0 .1.1.2 0 .4zM2.7 18.1h.2c.2 0 .3.2.3.4 0 0 0 .1-.1.1-.2.1-.5 0-.5-.3 0-.2 0-.5.1-.7 0-.1.1-.2 0-.2-.4-.3-.3-.8-.2-1.2.1-.4.3-.7.5-1.1.1-.3.2-.5.2-.8v-.2c.4-.3.5-.8.6-1.3.1-.3.2-.6.2-.9.1-.2.2-.2.3-.2.2.1.2.2.1.3-.1.2-.2.3-.2.5-.1.2-.2.4 0 .5 0 0 .1.1 0 .1-.1.2-.1.5-.2.8-.4.6-.7 1.4-.8 2.1-.1.5-.2 1.1 0 1.7 0 .1 0 .2-.1.2-.1-.1-.3.1-.4.2zM8.8 2c0-.3.1-.6.2-.9 0-.1.1-.1.2-.1.2 0 .4-.1.6-.1h.1c.5.1.6-.3.7-.6.1-.1.1-.1.2-.1.5.3 1.1.2 1.6 0h.2c.3-.2.4-.1.4.3 0 .1-.1.1-.1.1-.2.1-.4.2-.5.2-.1.1-.3.2-.4.1-.1-.1-.3 0-.4.1-.9.3-1.6.6-2.4 1-.1 0-.2.1-.3.1-.2.1-.2 0-.1-.1zm24 26c.1.2 0 .3-.1.4-.1.3-.3.5-.4.8 0 .1-.1.2-.1.3 0 .1-.1.3-.2.4-.2.3-.6.5-.7.8 0 .1-.1.1-.2 0-.3-.1-.5.1-.7.2-.2.2-.5.3-.8.2-.1-.1-.2-.1 0-.2s.4-.2.4-.5c0-.1.1-.1.2-.1.5-.3.9-.6.9-1.2 0-.1.1-.2.2-.1.6.2.8-.3 1.1-.7.2-.1.3-.2.4-.3zM4.3 8.6h.3c.3 0 .4.2.3.4-.1.2-.1.3.1.5v.1c-.1.2-.2.3-.3.5 0 .1-.2.1-.3.1-.1 0-.1 0-.1-.1-.2-.3-.5-.5-.7-.8-.1-.1-.1-.2-.2-.3 0-.1-.1-.1 0-.1.2 0 .2-.3.4-.4.1 0 .2-.1.1-.3v-.1c.1 0 .1 0 .1-.1.1-.1.1-.4.4-.4.3 0 .5.1.8.3.1.1.1.1 0 .2-.3.3-.6.3-.9.5zm15.9-1.5H20c-.2-.2-.4-.3-.7-.5-.1 0-.1-.1-.1-.2s.1-.1.2-.1c.2 0 .4-.1.6-.1.1 0 .2 0 .2.1.1.2.2.3.4.5.1.2.1.2-.1.2-.1.1-.2.1-.3.1zm-8.5 29.4c-.4-.1-.9-.2-1.3-.3-.1 0-.1-.2-.1-.3 0-.1.1-.1.2-.1.2.1.3.1.5 0h.1c.2.2.5.3.7.5.1 0 .1.1.1.2s-.1 0-.2 0zm28.1-17.4c-.1-.7-.1-1.4-.2-2.1 0-.1.1-.1.2-.2s.1 0 .1.1c.1.8.2 1.5-.1 2.2.1 0 .1 0 0 0zM.6 13.6c.1.7-.1 1.1-.6 1.5 0-.6.5-1 .6-1.5zm2 7.9c0-.1 0-.2.2-.3.1 0 .2 0 .3.1 0 0 0 .1.1.1 0 .1.2.2.1.3-.1.1-.2.1-.4 0-.2.1-.3 0-.3-.2zm23.2-5.2c-.3-.5-.4-1.1-.5-1.6.1.1.5 1.4.5 1.6zM2.6 20.4c-.1 0-.2 0-.2-.1s.2-.2.3-.2h.2c.1 0 .1 0 .1.1s-.1.1-.1.1c-.1 0-.2.1-.3.1zm9.9-17.1c.1.1.2 0 .2.1s.1.3-.1.3-.2-.2-.2-.3c0-.1 0-.1.1-.1zm8 16.9c.1-.1.4-.2.2-.4.1.1.2.2.2.3 0 .1-.2.1-.4.1zm-4.3 9.3c.2.3.2.4-.2.4 0-.1.3-.1.2-.4zm1.2-5.9c.1 0 .2-.1.3 0 0 0 .2.2 0 .2-.1 0-.2-.1-.3-.2zm15.9-4.4c-.1-.1-.2-.1-.3-.1.1-.1.2-.1.2-.1.1 0 .1.1.1.2z"/>
</svg>
