<svg xmlns="http://www.w3.org/2000/svg" xmlns:xlink="http://www.w3.org/1999/xlink" viewBox="0 0 32.77 32.77"><defs><style>.cls-1{fill:url(#linear-gradient);}.cls-2{fill:url(#linear-gradient-2);}.cls-3{fill:url(#linear-gradient-3);}.cls-4{fill:url(#linear-gradient-4);}.cls-5{fill:url(#linear-gradient-5);}.cls-6{fill:url(#linear-gradient-6);}.cls-7{fill:url(#linear-gradient-7);}.cls-8{fill:url(#linear-gradient-8);}.cls-9{fill:url(#linear-gradient-9);}.cls-10{fill:url(#linear-gradient-10);}.cls-11{fill:url(#linear-gradient-11);}.cls-12{fill:url(#linear-gradient-12);}</style><linearGradient id="linear-gradient" x1="7.81" y1="0.13" x2="25.44" y2="31.92" gradientUnits="userSpaceOnUse"><stop offset="0.26" stop-color="#ffdb6e"/><stop offset="1" stop-color="#ffbc5e"/></linearGradient><linearGradient id="linear-gradient-2" x1="14.33" y1="-2.27" x2="18.82" y2="5.84" xlink:href="#linear-gradient"/><linearGradient id="linear-gradient-3" x1="9.24" y1="9.71" x2="15.1" y2="20.28" xlink:href="#linear-gradient"/><linearGradient id="linear-gradient-4" x1="17.92" y1="10.43" x2="22.78" y2="19.18" xlink:href="#linear-gradient"/><linearGradient id="linear-gradient-5" x1="2.75" y1="6.74" x2="4.65" y2="10.18" xlink:href="#linear-gradient"/><linearGradient id="linear-gradient-6" x1="28.12" y1="6.74" x2="30.02" y2="10.17" xlink:href="#linear-gradient"/><linearGradient id="linear-gradient-7" x1="2.75" y1="10.44" x2="4.65" y2="13.88" xlink:href="#linear-gradient"/><linearGradient id="linear-gradient-8" x1="28.11" y1="10.44" x2="30.02" y2="13.88" xlink:href="#linear-gradient"/><linearGradient id="linear-gradient-9" x1="2.75" y1="14.14" x2="4.65" y2="17.57" xlink:href="#linear-gradient"/><linearGradient id="linear-gradient-10" x1="28.11" y1="14.14" x2="30.02" y2="17.57" xlink:href="#linear-gradient"/><linearGradient id="linear-gradient-11" x1="2.75" y1="17.84" x2="4.65" y2="21.27" xlink:href="#linear-gradient"/><linearGradient id="linear-gradient-12" x1="28.11" y1="17.84" x2="30.02" y2="21.27" xlink:href="#linear-gradient"/></defs><g id="Layer_2" data-name="Layer 2"><g id="Layer_1-2" data-name="Layer 1"><path class="cls-1" d="M20.79,27.48c.24.86.48,1.68.71,2.51,0,.16.16.14.28.14h1.85c.5,0,.68.18.68.67v1.26c0,.54-.17.71-.71.71H9.07c-.41,0-.61-.2-.61-.61s0-.92,0-1.39.18-.64.64-.64h1.84c.21,0,.31,0,.37-.26.18-.7.37-1.38.59-2.06.08-.26,0-.33-.24-.33H2a1.85,1.85,0,0,1-2-2V5.68a1.85,1.85,0,0,1,2-2h28.8a1.86,1.86,0,0,1,2,2V25.52a1.85,1.85,0,0,1-2,2h-10ZM16.4,23.26c5,0,10,0,14.92,0,.32,0,.4-.07.4-.39q0-8.54,0-17.07c0-.77-.27-1-1-1H2.09c-.77,0-1,.27-1,1q0,8.54,0,17.07c0,.31.06.4.39.4C6.42,23.25,11.41,23.26,16.4,23.26Zm0,1H1.57a2.25,2.25,0,0,1-.26,0c-.21,0-.27.06-.26.26,0,.35,0,.7,0,1.06a.79.79,0,0,0,.8.79h29a.81.81,0,0,0,.83-.84c0-.31,0-.62,0-.93s-.08-.35-.37-.35C26.37,24.32,21.38,24.31,16.4,24.31Zm0,5.82h3.76c.28,0,.3-.06.23-.31-.22-.69-.41-1.39-.6-2.09-.05-.2-.14-.25-.34-.25H13.35c-.2,0-.29.05-.34.25-.19.7-.38,1.4-.6,2.09-.08.25-.05.32.23.31Zm.05,1.05h-.83c-1.92,0-3.85,0-5.77,0-.25,0-.32.06-.32.31s.17.22.33.22H23.07c.14,0,.17-.05.19-.19s-.05-.35-.34-.34C20.75,31.19,18.59,31.18,16.42,31.18Z"/><path class="cls-2" d="M17,3.17H10.81A1.5,1.5,0,0,1,10.12,3l-1.8-.9a.57.57,0,0,1-.39-.52.58.58,0,0,1,.39-.53L10.21.12A1.08,1.08,0,0,1,10.74,0H23.15a1.59,1.59,0,1,1,0,3.17Zm.83-1H23a1.51,1.51,0,0,0,.3,0,.51.51,0,0,0,.46-.52.5.5,0,0,0-.46-.52,1.82,1.82,0,0,0-.33,0H12.89c-.74,0-.73,0-.74.76,0,.25.08.3.31.3C14.25,2.11,16,2.12,17.81,2.12ZM9.64,1.59c.39.19.7.37,1,.5s.43,0,.43-.31V1.42c0-.39-.13-.47-.5-.31S10,1.4,9.64,1.59Z"/><path class="cls-3" d="M12.66,20.08c-.83,0-1.65,0-2.48,0-.59,0-.8-.36-.54-.89s.54-1.11.82-1.65c.11-.2.06-.24-.13-.31A4.2,4.2,0,0,1,7.41,13a4.22,4.22,0,0,1,8.39-.4,4.14,4.14,0,0,1-1.25,3.66.33.33,0,0,0-.07.45c.43.82.84,1.65,1.25,2.48.27.55.06.9-.56.9C14.33,20.09,13.5,20.08,12.66,20.08Zm-4.2-6.87a3.17,3.17,0,0,0,2.25,3c.25.08.39.06.51-.21.29-.64.62-1.26.93-1.89a.59.59,0,0,1,.55-.4.55.55,0,0,1,.51.4c.19.37.38.74.56,1.12.07.13.13.17.23,0l.17-.21a3.17,3.17,0,0,0,0-3.73,3.17,3.17,0,0,0-5.75,1.84Zm6,5.81c-.33-.65-.63-1.25-.92-1.85-.07-.14-.15-.12-.27-.07a4.1,4.1,0,0,1-1.43.34c-.08,0-.16,0-.2.08-.24.49-.49,1-.74,1.5Zm-2.21-2.71c.28-.06.57-.06.66-.25s-.12-.36-.24-.6Z"/><path class="cls-4" d="M18.27,10.34l1,.29,5,1.46c.53.16.64.36.48.91l-1.68,5.72c-.14.5-.37.62-.85.48l-5.82-1.71a.56.56,0,0,1-.45-.79q.86-2.94,1.73-5.88A.58.58,0,0,1,18.27,10.34Zm.37,1.2c-.09,0-.12.09-.15.21l-1.35,4.59c-.07.22,0,.27.2.33L21.86,18c.23.07.3,0,.36-.2.44-1.51.88-3,1.33-4.52.08-.24,0-.3-.21-.36L20,12Z"/><path class="cls-5" d="M5.28,8.48q0,.48,0,1a.53.53,0,0,1-.58.6q-1,0-2,0a.52.52,0,0,1-.57-.58c0-.67,0-1.35,0-2a.52.52,0,0,1,.58-.57h2a.52.52,0,0,1,.57.58C5.29,7.8,5.28,8.14,5.28,8.48ZM3.67,9c.56,0,.56,0,.56-.54s0-.52-.52-.52-.54,0-.54.55S3.17,9,3.67,9Z"/><path class="cls-6" d="M29.08,10c-.33,0-.66,0-1,0s-.6-.2-.61-.58v-2a.54.54,0,0,1,.59-.57h2a.52.52,0,0,1,.57.58q0,1,0,2a.52.52,0,0,1-.58.57C29.74,10.05,29.41,10,29.08,10Zm0-1c.52,0,.52,0,.52-.49s0-.57-.56-.57-.5,0-.5.5S28.54,9,29.08,9Z"/><path class="cls-7" d="M3.74,10.57h1a.53.53,0,0,1,.59.57c0,.68,0,1.36,0,2a.51.51,0,0,1-.56.55h-2a.51.51,0,0,1-.55-.56c0-.69,0-1.37,0-2a.52.52,0,0,1,.56-.56Zm-.05,1.06c-.52,0-.52,0-.52.48s0,.58.56.58.5,0,.5-.51S4.23,11.63,3.69,11.63Z"/><path class="cls-8" d="M30.65,12.16c0,.34,0,.68,0,1a.52.52,0,0,1-.56.56H28a.51.51,0,0,1-.55-.56c0-.68,0-1.37,0-2a.51.51,0,0,1,.55-.56h2.05a.52.52,0,0,1,.56.56C30.66,11.48,30.65,11.82,30.65,12.16Zm-1,0c0-.52,0-.52-.41-.52-.65,0-.65,0-.65.41,0,.65,0,.65.42.65C29.6,12.69,29.6,12.69,29.6,12.15Z"/><path class="cls-9" d="M3.67,17.44h-1a.52.52,0,0,1-.56-.56q0-1,0-2a.52.52,0,0,1,.55-.57H4.72a.52.52,0,0,1,.56.56c0,.68,0,1.36,0,2,0,.36-.21.55-.59.56Zm.56-1.57c0-.54,0-.54-.4-.54-.66,0-.66,0-.66.4,0,.65,0,.65.44.66C4.23,16.39,4.23,16.39,4.23,15.87Z"/><path class="cls-10" d="M29.06,17.44h-1a.53.53,0,0,1-.59-.57v-2a.53.53,0,0,1,.57-.58h2a.53.53,0,0,1,.58.57c0,.68,0,1.35,0,2,0,.38-.21.57-.6.58Zm.54-1.58c0-.53,0-.53-.4-.53-.66,0-.66,0-.66.4,0,.66,0,.66.45.66C29.6,16.39,29.6,16.39,29.6,15.86Z"/><path class="cls-11" d="M3.73,21.14h-1a.53.53,0,0,1-.58-.6q0-1,0-2A.53.53,0,0,1,2.71,18h2a.54.54,0,0,1,.59.6q0,1,0,2a.53.53,0,0,1-.59.59Zm0-2.11c-.56,0-.56,0-.56.54a1.76,1.76,0,0,1,0,.23c0,.23.06.32.29.29h.2c.57,0,.57,0,.57-.55S4.23,19,3.73,19Z"/><path class="cls-12" d="M30.65,19.55c0,.35,0,.69,0,1a.52.52,0,0,1-.56.56H28a.51.51,0,0,1-.55-.56c0-.68,0-1.36,0-2A.51.51,0,0,1,28,18h2.05a.52.52,0,0,1,.56.56C30.66,18.87,30.65,19.21,30.65,19.55Zm-1,0c0-.51,0-.51-.49-.51s-.57,0-.57.56,0,.49.5.49S29.6,20.08,29.6,19.54Z"/></g></g></svg>